<?xml version="1.0" standalone="no"?><!DOCTYPE svg PUBLIC "-//W3C//DTD SVG 1.1//EN" "http://www.w3.org/Graphics/SVG/1.1/DTD/svg11.dtd"><svg t="1712845893746" class="icon" viewBox="0 0 1024 1024" version="1.1" xmlns="http://www.w3.org/2000/svg" p-id="4879" xmlns:xlink="http://www.w3.org/1999/xlink" width="200" height="200"><path d="M720.725333 315.733333H333.482667a39.338667 39.338667 0 0 1-39.424-39.424V73.557333c0-21.845333 17.749333-39.424 39.424-39.424h387.242666c21.845333 0 39.424 17.578667 39.424 39.424v202.752a39.424 39.424 0 0 1-39.424 39.424zM372.906667 236.885333h308.394666V112.981333H372.906667v123.904zM923.648 85.333333a85.333333 85.333333 0 1 1-73.301333 129.024h-40.106667a39.338667 39.338667 0 1 1 0-78.848l35.669333-0.085333A85.333333 85.333333 0 0 1 923.648 85.333333zM102.4 85.333333a85.333333 85.333333 0 0 1 77.653333 50.090667h56.661334a39.338667 39.338667 0 1 1 0 78.933333h-57.258667l-3.584-0.256A85.333333 85.333333 0 1 1 102.4 85.333333z" fill="#333333" p-id="4880"></path><path d="M720.725333 656.810667H333.482667a39.338667 39.338667 0 0 1-39.424-39.424V414.805333c0-21.845333 17.749333-39.424 39.424-39.424h387.242666c21.845333 0 39.424 17.578667 39.424 39.424v202.581334a39.424 39.424 0 0 1-39.424 39.424zM372.906667 577.962667h308.394666v-123.733334H372.906667v123.733334zM923.648 426.666667a85.333333 85.333333 0 1 1-73.386667 128.853333h-40.106666a39.338667 39.338667 0 1 1 0-78.848h35.84a85.333333 85.333333 0 0 1 77.653333-50.005333zM102.4 426.666667a85.333333 85.333333 0 0 1 77.653333 50.005333h56.661334a39.338667 39.338667 0 1 1 0 78.848h-57.258667l-3.498667-0.170667A85.333333 85.333333 0 1 1 102.4 426.666667z" fill="#4E95F7" p-id="4881"></path><path d="M720.725333 998.058667H333.482667a39.338667 39.338667 0 0 1-39.424-39.424V755.882667c0-21.845333 17.749333-39.424 39.424-39.424h387.242666c21.845333 0 39.424 17.578667 39.424 39.424v202.752a39.424 39.424 0 0 1-39.424 39.424z m-347.818666-78.848h308.394666V795.306667H372.906667v123.904zM923.648 785.066667a85.333333 85.333333 0 1 1-69.205333 135.168h-44.202667c-21.845333 0-39.424-22.869333-39.424-51.2 0-28.330667 17.749333-51.2 39.424-51.2h46.250667a85.162667 85.162667 0 0 1 67.157333-32.768zM102.4 785.066667c27.904 0 52.736 13.397333 68.266667 34.133333a27.648 27.648 0 0 1 8.789333-1.365333h57.173333c21.930667 0 39.509333 22.869333 39.509334 51.2 0 28.330667-17.578667 51.2-39.424 51.2h-57.258667a30.976 30.976 0 0 1-7.253333-0.853334A85.333333 85.333333 0 1 1 102.4 785.066667z" fill="#333333" p-id="4882"></path></svg>